<?xml version="1.0" encoding="UTF-8" standalone="no"?>
<svg
   width="512"
   height="512"
   viewBox="0 0 2133.3334 2133.3334"
   version="1.1"
   id="svg14"
   xml:space="preserve"
   xmlns="http://www.w3.org/2000/svg"
   xmlns:svg="http://www.w3.org/2000/svg"><defs
     id="defs14" /><g
     stroke-linecap="round"
     id="Layer_2_2"
     transform="matrix(4.0715596,0,0,4.0715596,4.1928435,-80.341266)"
     style="display:none;opacity:0.234"><path
       d="m 168.5,186.5 c -3.9,-2.03 -8.86,-4.28 -10,-5 -2.51,-1.63 -7.31,-6.07 -9.89,-9.21 -2.76,-3.4 -6.41,-8.22 -8.43,-11.18 -2.15,-3.2 -4.79,-8.45 -6.37,-12.89 -3.26,-9.28 -6.76,-21.58 -6.86,-29.11 -0.01,-1.62 0.3,-8.27 0.55,-8.61 0.56,-0.76 1.72,-1.1 2,-2 0.12,-0.36 -1.92,-4.71 -2,-6 -0.19,-2.7 12.88,-31.19 16,-36 2.18,-3.33 6.35,-8.17 9.17,-10.8 5.43,-5.01 17.92,-12.82 24.08,-15.81 5.2,-2.49 10.14,-4.44 14.75,-5.39 4.91,-0.97 21.68,-1.61 28,-1 3.62,0.37 11.8,1.92 15.3,2.92 3.6,1.05 10.72,3.98 14.1,5.9 6.41,3.67 19.39,14.49 24.17,20.48 1.42,1.8 8.08,11.17 8.43,11.7 2.44,3.68 4.88,8.09 6,12 1.03,3.68 4.27,23.36 4.79,29.52 0.21,2.53 0.36,9.27 -0.77,12.5 -0.18,0.53 -0.53,1.19 -1.02,1.98"
       fill="none"
       stroke="#000000"
       stroke-width="24.8"
       stroke-opacity="1"
       stroke-linejoin="round"
       id="path1-8" /><path
       d="m 221.5,175.5 c -3,-0.16 -10.62,-0.57 -15.24,-0.81 -3.2,-0.2 -12.28,-1.25 -13.56,-2.61 -0.11,-0.12 -0.93,-22 -1.61,-27.2 -0.44,-3.29 -1.89,-10.06 -2.59,-12.38 -1.05,-3.37 -3.04,-7.04 -7,-12 -2.17,-2.7 -20.16,-23.3 -21,-24 -1.01,-0.87 -0.98,-1.13 0.17,-2.92 0.32,-0.47 6.26,-10.23 7.83,-12.08 2.46,-2.86 7.84,-6.64 9.43,-9.02 1.41,-2.1 8.58,-6.15 9.57,-6.98 1.15,-0.96 3.79,-3.9 4,-4 0.28,-0.13 3.06,0.14 4,0 1.05,-0.15 9.57,-3.4 12.14,-3.77 3.54,-0.46 10.63,0.59 14.45,1.88 3.02,1.03 10.22,4.16 12.77,5.88 8.41,5.76 24.35,25.99 24.64,27.01 0.16,0.65 -0.28,1.4 0,2 0.18,0.44 1.05,0.53 1,1 -0.03,0.23 -18.7,21.16 -21,24 -3.4,4.23 -6.13,8.62 -7.12,11.29 -1.82,5.06 -3.79,18.85 -4.37,27.89 -0.32,5.82 -1.19,12.28 -1.51,12.82 -0.71,1.2 -1.57,2.12 -2.58,2.78 -0.77,0.48 -2,0.42 -2.42,1.22 -0.19,0.36 -0.19,1.36 0,3"
       fill="none"
       stroke="#000000"
       stroke-width="24.8"
       stroke-opacity="1"
       stroke-linejoin="round"
       id="path2-2" /><path
       d="M 127.5,102.5 C 117.31,99.96 106.46,97.57 99.38,96.87 92.23,96.19 80,97.48 73.06,99.4 c -3.47,0.98 -12.16,3.88 -12.56,4.1 -0.64,0.35 -4.06,3.04 -8.53,5.1 -3.24,1.5 -9.53,6.58 -13.1,9.99 -2.06,1.99 -13.26,13.62 -13.37,13.91 -0.23,0.63 -0.08,2.49 -1.09,3.96 -2.89,4.24 -5.24,8.42 -6.47,11.49 -1.81,4.58 -5.32,25.68 -5.55,30.96 -0.15,4.24 0.47,11.75 1.39,15.6 0.75,3.05 7.81,21.49 9.88,25.08 2.56,4.37 13.63,17.17 19.28,21.49 2.68,2.03 8.82,5.7 12.29,7.07 1.97,0.77 13.41,4.35 13.92,4.47 1.47,0.32 3.19,-0.56 4.65,-2.11 0.28,-0.31 0.85,-0.98 1.7,-2.01"
       fill="none"
       stroke="#000000"
       stroke-width="24.8"
       stroke-opacity="1"
       stroke-linejoin="round"
       id="path3-5" /><path
       d="m 329.5,113.5 c 0,0 0,-13 0,-13"
       fill="none"
       stroke="#000000"
       stroke-width="24.8"
       stroke-opacity="1"
       stroke-linejoin="round"
       id="path4-2" /><path
       d="m 291.5,107.5 c -1.27,0.46 -5.33,1.93 -6.33,2.27 -2.01,0.69 -4.05,0.49 -4.67,0.73 -1.03,0.42 -17.27,16.91 -20.66,22.41 -0.27,0.44 -4.93,8.67 -6.05,10.46 -1.64,2.66 -2.71,6.77 -3.32,11.83 -0.7,5.45 -2.67,10.69 -2.97,12.3 -0.13,0.75 -0.25,9.82 -0.21,13.52 -0.01,2.07 0.52,3.03 2.21,4.48"
       fill="none"
       stroke="#000000"
       stroke-width="24.8"
       stroke-opacity="1"
       stroke-linejoin="round"
       id="path5-3" /><path
       d="m 129.5,108.5 c 1.02,0.35 9.11,3.21 12,5 3.02,1.9 9.92,8.72 10,9 0.18,0.64 -0.21,1.37 0,2 0.1,0.31 8.95,8.88 9,9 0.24,0.62 0.06,2.4 1,4.13 6.02,11.52 9.56,20.06 10.58,26.55 0.97,6.44 0.63,19 0.42,19.32 -0.52,0.79 -1.65,1.13 -2,2 -0.18,0.44 0.77,0.59 1,1 0.18,0.3 -0.19,3.51 0,4 0.25,0.7 1.05,1.26 1,2 -0.02,0.33 -2.68,3.23 -3,4 -0.14,0.34 0.15,3.05 0,4 -0.17,1.1 -4.22,10.72 -5,12 -1.04,1.72 -2.92,3.51 -3,4 -0.11,0.66 0.22,1.37 0,2 -0.11,0.32 -20.38,22.54 -21,23 -0.67,0.5 -3.67,1.71 -4,2 -2.73,3.1 -6.88,5.51 -12.71,7.57 -9.33,3.07 -18.11,5.05 -19.29,4.43 -0.87,-0.47 -4.22,-2.88 -6,-3.5 -1.4,-0.47 -11.41,-0.38 -13,-0.5 -3.35,-0.27 -8.84,-2.12 -9.58,-3.54 -0.71,-1.48 0.42,-9.24 -0.42,-10.46 -0.97,-1.38 -3.79,-3.12 -6,-4"
       fill="none"
       stroke="#000000"
       stroke-width="24.8"
       stroke-opacity="1"
       stroke-linejoin="round"
       id="path6-5" /><path
       d="m 291.5,102.5 c 6.58,-1.18 20.92,-3.74 29.28,-4.81 2.08,-0.29 5.52,0.24 7.12,1.26 0.63,0.4 0.88,1.74 1.6,1.55 0.91,-0.23 1.22,-1.46 2,-2 0.37,-0.26 10.71,-0.33 12,0 1.49,0.39 3.5,1.86 4,2 0.05,0.02 3.01,-0.23 4,0 1.44,0.34 17.78,8.81 18,9 0.71,0.62 1.14,1.61 2,2 0.6,0.28 1.36,-0.19 2,0 0.48,0.15 15.86,14.71 16,15 0.47,0.95 0.39,2.14 1,3 0.36,0.52 2.98,1.37 4,3 0.7,1.12 2.18,11.53 2,12 -0.19,0.47 -0.85,1.47 -2,3"
       fill="none"
       stroke="#000000"
       stroke-width="24.8"
       stroke-opacity="1"
       stroke-linejoin="round"
       id="path7-8" /><path
       d="m 369.5,109.5 c -0.71,0.97 -2.62,3.58 -3,4 -0.63,0.7 -1.34,1.32 -2,2 -0.48,0.5 -6.03,6.88 -7,8"
       fill="none"
       stroke="#000000"
       stroke-width="24.8"
       stroke-opacity="1"
       stroke-linejoin="round"
       id="path8-0" /><path
       d="m 371.5,111.5 c -0.61,0.61 -2.61,2.61 -4,4 -2.42,2.42 -6.92,6.92 -9,9"
       fill="none"
       stroke="#000000"
       stroke-width="24.8"
       stroke-opacity="1"
       stroke-linejoin="round"
       id="path9-9" /><path
       d="m 390.5,129.5 c -1.7,1.34 -4.43,3.6 -6,5 -1.26,1.13 -5.29,5.26 -6,6"
       fill="none"
       stroke="#000000"
       stroke-width="24.8"
       stroke-opacity="1"
       stroke-linejoin="round"
       id="path10-6" /><path
       d="m 260.5,164.5 c -0.99,-2.44 -1,-3.37 0.22,-4.25 1.4,-1.04 13.44,-20.77 15.89,-24.11 3.21,-4.11 6.38,-6.53 8.12,-6.88 1.19,-0.22 5.42,1.54 5.77,2.24 0.53,1.19 -0.73,5.01 -1,6 -0.15,0.51 0.13,3.23 0,4 -0.95,5.55 -10.85,22.03 -12.21,23.41 -0.16,0.15 -17.61,18.52 -17.79,18.59 -0.62,0.24 -2.58,0.09 -4.67,1.13 -2.4,1.23 -5.75,3.16 -6.33,3.87 -0.39,0.48 -1.5,3.61 -2,4 -0.34,0.26 -7.95,2.39 -13.93,3.75 -5.66,1.22 -9.66,1.12 -10.07,1.25 -0.18,0.06 -3.15,1.72 -4,2 -0.51,0.17 -8.5,0.84 -11.75,0.54 -6.44,-0.61 -31.92,-7.38 -34.25,-7.54"
       fill="none"
       stroke="#000000"
       stroke-width="24.8"
       stroke-opacity="1"
       stroke-linejoin="round"
       id="path11-8" /><path
       d="m 137.5,133.5 c 0,0 0,1 0,1"
       fill="none"
       stroke="#000000"
       stroke-width="24.8"
       stroke-opacity="1"
       stroke-linejoin="round"
       id="path12-9" /><path
       d="m 259.5,161.5 c 0,0 -9,-1 -9,-1"
       fill="none"
       stroke="#000000"
       stroke-width="24.8"
       stroke-opacity="1"
       stroke-linejoin="round"
       id="path13-3" /><path
       d="m 279.5,162.5 c 1.43,1.07 4.01,3.2 6,5 1.05,0.95 7.01,6.97 9,9"
       fill="none"
       stroke="#000000"
       stroke-width="24.8"
       stroke-opacity="1"
       stroke-linejoin="round"
       id="path14-4" /><path
       d="m 278.5,163.5 c 2.76,2.87 4.45,4.54 6,6 1.36,1.27 7.01,6.26 9,8"
       fill="none"
       stroke="#000000"
       stroke-width="24.8"
       stroke-opacity="1"
       stroke-linejoin="round"
       id="path15" /><path
       d="m 161.5,193.5 c 0,0 7,-7 7,-7"
       fill="none"
       stroke="#000000"
       stroke-width="24.8"
       stroke-opacity="1"
       stroke-linejoin="round"
       id="path16" /><path
       d="m 247.5,192.5 c 1.15,1.28 2.71,3.23 3,4 0.24,0.64 -0.08,3.47 0,4 0.11,0.75 2.5,9.62 3,10 0.23,0.17 3.91,1.31 4.5,2 0.76,0.91 1.55,4.61 1.5,6 -0.07,1.84 0.12,2.27 1.71,3.95 0.2,0.21 14.92,16.38 18.29,20.05"
       fill="none"
       stroke="#000000"
       stroke-width="24.8"
       stroke-opacity="1"
       stroke-linejoin="round"
       id="path17" /><path
       d="m 393.5,207.5 c -1.64,-1.23 -6.97,-2.17 -12.3,-2.4 -2.24,-0.06 -6.11,0.04 -7.21,0.08 -1.93,0.09 -3.84,0.87 -4.7,1.94 -0.33,0.41 -0.26,1.34 -0.79,1.38 -0.47,0.03 -0.57,-0.8 -1,-1 -0.18,-0.09 -3.19,0.27 -4,0 -0.64,-0.21 -4.28,-2.72 -5,-3 -0.77,-0.3 -5.24,-0.76 -6,-1 -0.02,-0.01 -5.21,-2.24 -6,-2 -0.58,0.18 -3.4,3.62 -4,4 -0.25,0.16 -6.65,-1.12 -10.9,-0.96 -5.5,0.24 -26.94,2.31 -31.18,3.53 -1.17,0.39 -3.63,1.19 -3.92,1.43 -0.72,0.6 -2.39,2.29 -4.39,2.94 -3.41,1.19 -12.7,4.38 -13.61,5.06 -1.29,1 -2.54,4.2 -3,5 -0.49,0.87 -7.9,6.81 -10.83,9.62 -1.31,1.3 -4.05,4.02 -4.17,4.38 -0.2,0.64 -0.11,2.53 -1.36,4.35 -1.13,1.66 -3.53,5.16 -3.64,5.65 -0.15,0.65 0.21,1.37 0,2 -0.12,0.36 -3.11,2.3 -3.78,3.29 -1.91,2.8 -4.16,12.68 -4.65,15.71 -1.03,6.75 -2.42,14.59 -2.57,15 -0.31,0.85 -2.04,3.67 -2,4 0.07,0.43 5.58,5.91 5,7 -0.45,0.83 -1.51,1.2 -2,2 -0.31,0.52 -0.14,5.74 -0.02,6.57 0.62,3.78 3.31,6.59 7.02,9.43"
       fill="none"
       stroke="#000000"
       stroke-width="24.8"
       stroke-opacity="1"
       stroke-linejoin="round"
       id="path18" /><path
       d="m 258.5,212.5 c 2.34,-0.12 8.3,-3.32 10,-6 0.27,-0.43 0.53,-3.23 1,-4 0.82,-1.32 13.64,-12 14,-12 0.75,0.03 1.27,1.16 2,1 0.93,-0.18 2.32,-2.27 3.7,-2.48 7.64,-1.25 18.04,-1.66 29.66,-1.7 7.93,0.07 25.04,0.22 26.64,1.18 1.01,0.69 0.95,7.66 0.98,10.6 0.01,0.8 0.01,1.6 0.02,2.4"
       fill="none"
       stroke="#000000"
       stroke-width="24.8"
       stroke-opacity="1"
       stroke-linejoin="round"
       id="path19" /><path
       d="m 269.5,202.5 c 0.7,0.98 1.03,1.65 1,2 -0.04,0.75 -1.01,1.26 -1,2 0.01,0.38 6.7,8.32 9,11"
       fill="none"
       stroke="#000000"
       stroke-width="24.8"
       stroke-opacity="1"
       stroke-linejoin="round"
       id="path20" /><path
       d="m 363.5,207.5 c -2.45,2.82 -6.56,7.54 -7,8 -0.67,0.67 -1.33,1.33 -2,2 -0.29,0.3 -6.03,6.78 -8,9"
       fill="none"
       stroke="#000000"
       stroke-width="24.8"
       stroke-opacity="1"
       stroke-linejoin="round"
       id="path21" /><path
       d="m 371.5,219.5 c -4.08,5.04 -7.66,8.72 -10.56,9.86 -0.17,0.07 -26.16,6.03 -27.44,6.14 -1.28,0.11 -5.77,-0.02 -6,0 -0.84,0.08 -8.26,2.07 -13.29,2.09 -3.23,-0.01 -12.08,-0.31 -16.11,-0.28 -2.15,0.03 -3.52,0.56 -4.19,1.68 -0.45,1.01 -1.56,3.13 -2.58,3.71 -1.15,0.62 -3.88,0.9 -5.41,0.61 -1.52,-0.32 -4.48,-0.9 -5.42,-0.81 -1.29,0.16 -2.45,1.39 -4,4 -0.07,0.13 -6.61,10.73 -7,11 -0.61,0.43 -1.51,0.44 -2,1 -0.03,0.03 -0.82,8.21 -1.69,12.51 -0.34,1.78 -0.23,3.54 0.43,4.42 1.24,1.51 9.72,7.06 10.26,8.07 0.59,1.11 -0.19,3.51 0,4 0.05,0.14 3.12,0.56 4,1 1.24,0.61 17.92,16.78 18,17 0.23,0.63 0.08,2.38 1.23,3.98 0.95,1.38 6.55,9.83 7.77,14.02 1.3,4.67 0.83,19.55 1,20 0.35,0.96 2.25,4.09 2,5 -0.33,1.13 -6.82,7.54 -7,8 -0.24,0.62 -0.12,2.59 -1.4,4.56 -0.53,0.81 -1.07,1.63 -1.6,2.44"
       fill="none"
       stroke="#000000"
       stroke-width="24.8"
       stroke-opacity="1"
       stroke-linejoin="round"
       id="path22" /><path
       d="m 292.5,240.5 c -0.18,-1.55 -0.18,-2.55 0,-3 0.35,-0.87 1.39,-1.28 2,-2 0.48,-0.54 1.87,-3.32 3,-4 1.01,-0.59 33.77,-8.04 34,-8 0.46,0.09 1.31,1.2 3.04,1.39 5.36,0.64 10.48,1.52 13.48,2.95 0.77,0.37 3.62,2.13 4.48,2.66"
       fill="none"
       stroke="#000000"
       stroke-width="24.8"
       stroke-opacity="1"
       stroke-linejoin="round"
       id="path23" /><path
       d="m 61.5,234.5 c 2.17,0.19 5.16,0.28 6,0 0.57,-0.19 2.44,-2.61 3,-3 0.44,-0.3 8.95,-2.7 12.67,-3.43 3.79,-0.73 10.15,-1.21 13.77,-0.94 6.3,0.52 17.26,3.05 17.56,3.37 0.51,0.54 0.42,1.54 1,2 0.2,0.16 7.47,-1.14 8,-1 0.72,0.2 1.26,0.99 2,1 0.25,0.01 0.58,-0.33 1,-1"
       fill="none"
       stroke="#000000"
       stroke-width="24.8"
       stroke-opacity="1"
       stroke-linejoin="round"
       id="path24" /><path
       d="m 367.5,231.5 c 0,0 -4,-3 -4,-3"
       fill="none"
       stroke="#000000"
       stroke-width="24.8"
       stroke-opacity="1"
       stroke-linejoin="round"
       id="path25" /><path
       d="m 368.5,208.5 c 1.66,2.29 2.33,3.69 2.46,5.63 0.14,1.63 0.42,5.2 0.54,5.37 0.2,0.26 0.72,-0.18 1,0 0.8,0.5 1.16,1.57 2,2 0.59,0.3 1.35,-0.15 2,0 0.3,0.08 9.32,7.55 9.5,8 0.37,0.94 0.65,3.49 1.73,4.41 2.74,2.36 6.47,6.83 8.36,10.32 3.07,5.78 8.7,20.52 10.04,27.22 1.27,6.53 1.85,21.61 1.13,26.42 -1.05,6.72 -6.17,19.1 -11.74,30.01 -4.11,7.76 -8.69,13.51 -9.02,13.62 -0.64,0.2 -2.24,0.04 -3.65,0.87 -2.42,1.4 -6.77,1.37 -10.35,3.13 -2.48,1.25 -16.63,10.88 -17,11 -0.72,0.24 -3.43,0.49 -4,1 -0.51,0.46 -2.18,4.29 -2.52,4.76 -0.86,1.21 -3.55,2.9 -5.14,3.33 -7.89,1.96 -13.2,-0.19 -13.34,-0.09 -0.76,0.55 -1.16,1.57 -2,2 -0.65,0.33 -22.21,-1.55 -23.38,-1.63 -2.27,-0.15 -3.62,-1.37 -4.62,-2.37 -0.42,-0.25 -7.71,-0.04 -9,0"
       fill="none"
       stroke="#000000"
       stroke-width="24.8"
       stroke-opacity="1"
       stroke-linejoin="round"
       id="path26" /><path
       d="m 33.5,233.5 c 0,0 0,-3 0,-3"
       fill="none"
       stroke="#000000"
       stroke-width="24.8"
       stroke-opacity="1"
       stroke-linejoin="round"
       id="path27" /><path
       d="m 115.5,232.5 c -2.58,1.25 -10.08,4.81 -11,5 -0.97,0.22 -2,0.13 -2.93,0.47 -0.85,0.33 -1.24,2.6 -1.1,4.88 0.1,1.59 0.44,7.24 0.03,8.15 -0.58,1.25 -2.48,1.75 -4,1.5"
       fill="none"
       stroke="#000000"
       stroke-width="24.8"
       stroke-opacity="1"
       stroke-linejoin="round"
       id="path28" /><path
       d="m 293.5,241.5 c 1.99,3.02 7.95,11.97 8,12 0.58,0.33 2.55,-0.01 4.05,0.45 0.1,0.03 9.55,2.63 12.93,2.83 3.12,0.17 24.31,-1.01 27.69,-1.57 3.85,-0.67 9.27,-2.75 13.41,-4.88 1.49,-0.77 3.28,-0.66 3.92,-0.83 0.12,-0.03 10.29,-6.53 12.44,-7.98 4.64,-3.24 8.27,-6.33 9.37,-8.65 0.83,-1.76 5.98,-7.01 7.19,-9.37 1.1,-2.2 3.2,-11.67 3,-12 -0.49,-0.81 -1.63,-1.13 -2,-2 -0.12,-0.3 4.63,-11.56 5.6,-14.1 1.53,-4.01 3.41,-10.95 3.91,-14.3 0.51,-3.55 0.44,-8.88 -0.61,-12.47 -0.9,-3.13 -5.54,-19.27 -5.59,-19.36 -0.73,-1.12 -3.43,-2.19 -5.14,-2.13 -1.03,0.05 -6.42,0.76 -7.49,0.8 -1.64,0.03 -4.15,-1.15 -4.68,-2.32 -0.21,-0.48 -0.62,-4.64 -1,-5.12 -0.39,-0.5 -3.75,-0.89 -4,-1 -0.39,-0.17 -6.13,-5.49 -11.66,-10.95 -4.39,-4.21 -5.95,-5.36 -9.34,-6.05 -0.6,-0.16 -11.04,-4.29 -15.26,-5.98 -2.32,-0.96 -4.15,-0.71 -4.74,-1.02 -0.59,-0.3 -0.72,-1.14 -1.23,-1.57 -1.17,-0.93 -3.77,-0.92 -5.85,0.09 -1.3,0.65 -5.89,3.11 -6.92,3.48 -1.08,0.39 -3.7,0.82 -4,1 -0.73,0.48 -2.65,3.03 -3,4 -0.39,1.16 0.42,6.97 0,8 -0.23,0.57 -1.73,2.71 -2,4 -0.22,1.09 0.22,10.4 -0.83,13.31 -1.45,3.33 -2.79,8.17 -3.17,8.69 -0.56,0.76 -1.6,1.14 -2,2 0,0.67 0,1.33 0,2 -0.4,0.85 -1.46,1.22 -2,2 -0.02,0.03 -1.11,4.32 -2,6 -0.59,1.14 -3.14,4.29 -4.78,6.21 -1.51,1.74 -1.88,4.01 -2.22,4.79 -0.14,0.33 -7.47,8.3 -10,11"
       fill="none"
       stroke="#000000"
       stroke-width="24.8"
       stroke-opacity="1"
       stroke-linejoin="round"
       id="path29" /><path
       d="m 161.5,246.5 c -1.33,0.12 -3.26,0.51 -4,1 -0.64,0.44 -7.05,13.59 -7,14 0.09,0.74 0.81,1.28 1,2 0.14,0.53 -0.78,5.55 -1.04,6.76 -0.49,2.13 -1.77,5.11 -2.83,6.13 -0.18,0.17 -18.19,10.84 -23.76,15.28 -3.01,2.42 -7.76,7.31 -9.95,10.26 -1.79,2.46 -5.55,8.66 -7.12,11.96 -1.74,3.75 -3.39,10.16 -3.63,13.96 -0.13,2.34 -0.21,11.93 -0.67,12.65 -0.36,0.55 -3.65,2.48 -4,3 -0.65,0.98 -0.95,8.58 -1,10"
       fill="none"
       stroke="#000000"
       stroke-width="24.8"
       stroke-opacity="1"
       stroke-linejoin="round"
       id="path30" /><path
       d="m 255.5,248.5 c 0.83,0.69 2.77,2.18 4,3 1.05,0.7 5.95,3.61 6.66,4.11 3.18,2.24 7.82,8.52 10.34,9.89 1.41,0.75 23.92,6.69 29.22,7.71 8.96,1.71 26.56,2.99 35.07,2.2 3.45,-0.33 19.54,-2.85 19.71,-2.91 0.74,-0.26 3.68,-1.97 4,-2 0.53,-0.05 2.69,0.47 4,0 0.82,-0.3 4.66,-2.94 5.77,-3.67 2.15,-1.4 4.92,-2.49 6.23,-2.33 1.26,0.22 3.09,2.08 3.89,3.85 1.26,2.92 2.62,9.86 2.77,13.37 0.21,6.71 -2.2,16.26 -5.66,25.78 -1.28,3.36 -4.04,10.4 -5,12 -0.87,1.48 -3.06,4.08 -3.16,4.29 -1.48,3.47 -0.12,18.59 0.16,21.71"
       fill="none"
       stroke="#000000"
       stroke-width="24.8"
       stroke-opacity="1"
       stroke-linejoin="round"
       id="path31" /><path
       d="m 150.5,261.5 c -9.95,5.85 -18.65,10.13 -26.38,11.5 -3.91,0.66 -45.39,2.46 -51.4,2.54 -2.23,0.05 -6.14,-2.27 -8.85,-2.33 -4.96,-0.12 -10.91,-1.61 -14.63,-3.71 -1.56,-0.89 -6.05,-6.29 -6.74,-6 -0.78,0.4 -5.12,10.19 -6.1,13.2 -0.91,2.87 -0.87,9.07 -0.35,13.51 0.54,4.42 2.43,11.86 4.18,15.18 0.75,1.4 3.11,4.9 4.06,6.19 1.11,1.5 1.13,3.26 1.21,3.92 0.18,1.47 4.63,6.73 8.32,10.28 1.88,1.76 8.35,7.37 11.25,9.28 2.23,1.44 9.5,4.88 11.92,5.8 3.27,1.23 9.45,1.99 14.3,1.81 6.04,-0.23 6.62,-0.03 7.21,0.83"
       fill="none"
       stroke="#000000"
       stroke-width="24.8"
       stroke-opacity="1"
       stroke-linejoin="round"
       id="path32" /><path
       d="m 177.5,286.5 c 6.93,-1.51 23.07,-4.91 29.98,-5.34 5.4,-0.3 18.72,1.71 28.28,4.09 5.53,1.3 6.14,1.16 6.74,0.25"
       fill="none"
       stroke="#000000"
       stroke-width="24.8"
       stroke-opacity="1"
       stroke-linejoin="round"
       id="path33" /><path
       d="m 261.5,302.5 c 1.67,-1.67 4.67,-4.67 6,-6 2.51,-2.51 7.01,-7.01 9,-9"
       fill="none"
       stroke="#000000"
       stroke-width="24.8"
       stroke-opacity="1"
       stroke-linejoin="round"
       id="path34" /><path
       d="m 247.5,293.5 c 2.11,0.49 5.06,1.04 6,1 1.97,-0.02 2.32,0.21 3.81,2.59 1.24,1.98 3.78,6.18 4.19,7.41 0.54,1.63 0.71,5.3 1,6 0.17,0.39 5.27,4.05 9.28,8.73 0.79,0.94 4.34,5.4 4.72,6.27 0.44,0.99 1.63,5.59 2,6 0.56,0.61 4.92,1.86 5.38,2.15 1.31,0.84 3.22,3.81 3.75,5.52 0.87,3.06 1.98,12.92 1.87,13.33 -0.27,1.02 -1.21,1.97 -1,3 0.19,0.92 1.46,1.23 2,2 0.41,0.59 1.13,5.38 1,6 -0.16,0.73 -1.16,2.47 -1.03,4.27 0.11,1.9 0.22,4.97 0.03,5.73 -0.22,0.85 -1.93,3.81 -2,4 -0.23,0.65 -0.53,7 -2,10.97 -1.63,4.31 -4.92,11.52 -7,15.03 -3.19,5.32 -12.99,16.28 -17.99,20.41 -5.67,4.65 -16.15,10.39 -24.34,13.36 -6.66,2.39 -19.86,5.38 -26.67,5.23 -6.45,-0.17 -25.21,-3.33 -30.49,-5.66 -1.48,-0.66 -4.4,-2.45 -5.83,-3.41 -1.25,-0.86 -3.04,-0.74 -3.68,-0.93 -0.23,-0.07 -19.02,-14.29 -24,-20 -3.02,-3.51 -7.07,-9.97 -9,-14.26 -3.47,-7.85 -7.58,-20.67 -8,-25.74 -0.14,-1.81 -0.09,-4.05 0.08,-6.32 0.12,-1.38 -1,-2.21 -1.08,-2.68 -0.03,-0.18 3.05,-7.56 3,-8 -0.09,-0.74 -1.16,-2.44 -0.98,-3.89 0.4,-3.25 1.87,-10.39 2.81,-13.52 0.61,-1.97 1.41,-2.85 3.42,-4.08 1.34,-0.81 2.1,-2.12 2.19,-3.8 0.05,-1.1 0.29,-5.75 0.73,-7.3 1.04,-3.56 6.04,-10.85 9.25,-14.45 1.75,-1.97 7.6,-8.12 9.81,-9.02 1.34,-0.54 2.77,-2.26 3.32,-2.87 1.24,-1.38 3.32,-2.56 5.14,-2.85 1.78,-0.28 5.18,-0.56 5.31,-0.72 0.31,-0.39 -0.23,-1.06 0,-1.5 0.38,-0.81 4.99,-4.48 5,-5 0.02,-1.2 -1.36,-1.98 -2,-3 -0.3,-0.47 -0.58,-9.27 -1,-12 -1.16,-7.29 -5.51,-17.49 -7.37,-20.12 -1.01,-1.38 -3.21,-2.84 -3.98,-3.35 -1.18,-0.79 -2.05,-2.19 -2.2,-3.51 -0.36,-3.69 -2.58,-8.38 -5.22,-11.63 -4.28,-5.17 -21.13,-18.15 -22.23,-18.39 -0.65,-0.14 -1.36,0.2 -2,0 -0.83,-0.25 -4.12,-3.06 -6,-4 -1.77,-0.89 -21.49,-5.53 -28,-6 -7.53,-0.5 -23.89,2.3 -29.23,3.94 -3.22,1 -9.39,3.37 -12.14,4.87 -5.63,3.11 -19.19,14.58 -24.18,19.94 -2.7,2.93 -7.63,9.33 -9.65,12.81 -3.58,6.23 -8.61,22.48 -9.45,28.37 -0.48,3.51 -0.58,8.81 -0.48,13.23 0.1,3.64 2.36,17.83 2.35,19.81 0,3.05 2.1,7.73 4.74,12.43 2.08,3.51 6.52,10.85 8.88,14.67 1.85,2.89 5.28,8.27 7.4,9.77 2.53,1.75 5.24,4.6 6.47,5.63 0.93,0.77 8.24,6.7 11.88,8.54 6.31,3.13 18.58,6.32 31.04,8.91 5.03,1.02 8.62,1.61 9.72,1.52 2.03,-0.18 32.39,-5.23 33.65,-5.44"
       fill="none"
       stroke="#000000"
       stroke-width="24.8"
       stroke-opacity="1"
       stroke-linejoin="round"
       id="path35" /><path
       d="m 158.5,326.5 c 2.52,-1.93 4.08,-4.11 6.47,-9.25 1.32,-2.85 6.72,-9.07 7.53,-10.75 0.73,-1.55 1.29,-3.71 1.89,-7.14 0.36,-2.17 -0.17,-3.59 -1.89,-5.86"
       fill="none"
       stroke="#000000"
       stroke-width="24.8"
       stroke-opacity="1"
       stroke-linejoin="round"
       id="path36" /><path
       d="m 262.5,310.5 c -4.92,0.7 -9.97,1.33 -10,1.5 -0.17,0.94 0.89,1.74 1,2.69 0.14,1.13 -0.2,2.06 -1,2.81 -1.15,1.04 -19.98,1.01 -20,1 -0.2,-0.1 -5.85,-6.39 -8.29,-8.31 -1.39,-1.06 -4.72,-2.62 -6.51,-2.98 -0.77,-0.15 -5.79,-0.47 -6.2,-0.71 -0.41,-0.23 -0.54,-0.89 -1,-1 -0.12,-0.02 -11.89,2.58 -14,4 -1.76,1.23 -3.06,3.33 -3.57,5.53 -0.37,1.82 -0.56,4.09 -0.45,5.07 0.15,1.22 -1.39,2.67 -1.98,3.4 -0.29,0.36 -6.31,14.98 -8.68,19.75 -0.96,1.95 -2.75,2.77 -3.32,3.25 -0.39,0.33 -2.16,4.6 -2.86,5.74 -1.96,3.2 -7.95,9.3 -10.72,11.77 -2.69,2.35 -10.33,8.94 -10.63,9.25 -1.08,1.17 -0.48,3.29 1.14,5.45 1.31,1.67 2,2.6 2.07,2.79 0.24,0.62 -0.17,1.36 0,2 0.09,0.34 16.29,20.85 19.37,22.97 0.16,0.11 6.44,2.96 9.88,5.12 3.82,2.38 8.28,4.7 13.09,6.9 2.48,1.09 5.42,1.98 7.44,2.13 3.8,0.23 11.69,-1.88 16.27,-4.04 1.77,-0.84 10.02,-5.03 12.46,-7.1 1.06,-0.91 2.85,-0.79 3.49,-0.98 0.17,-0.05 8.88,-6.9 11.29,-9.08 3.38,-3.1 8.69,-9.59 10.5,-13.15 0.19,-0.38 1.92,-4.23 3.02,-6.53 0.83,-1.77 2.42,-3.42 2.88,-4.13 0.62,-1.04 0.09,-2.79 -1.33,-4.57 -1.65,-1.98 -4.4,-4.95 -5.36,-5.54 -0.33,-0.2 -5.23,-2.29 -6,-3 -0.75,-0.7 -1.66,-2.73 -2.88,-5.75 -0.65,-1.72 -2.68,-3.41 -3.12,-4.25 -0.1,-0.2 -0.33,-10.31 -0.22,-15.22 0.08,-2.25 0.54,-3.83 1.44,-4 0,0 8.89,0.18 12.32,0.11 1.87,-0.06 4.41,1.16 5.46,1.11 0.19,-0.01 2.62,-2.6 4,-3 1.19,-0.36 4.64,-0.24 7,0"
       fill="none"
       stroke="#000000"
       stroke-width="24.8"
       stroke-opacity="1"
       stroke-linejoin="round"
       id="path37" /><path
       d="m 155.5,330.5 c 1.59,-0.58 3.16,-1.88 3,-3 -0.18,-1.1 -6.47,-6.67 -8,-8 -1.87,-1.57 -4.87,-4.07 -6,-5"
       fill="none"
       stroke="#000000"
       stroke-width="24.8"
       stroke-opacity="1"
       stroke-linejoin="round"
       id="path38" /><path
       d="m 151.5,334.5 c 2,-0.53 4.02,-1.81 4,-3 -0.05,-1.1 -6.44,-6.67 -8,-8 -1.87,-1.57 -4.87,-4.07 -6,-5"
       fill="none"
       stroke="#000000"
       stroke-width="24.8"
       stroke-opacity="1"
       stroke-linejoin="round"
       id="path39" /><path
       d="m 138.5,332.5 c 0,0 13,2 13,2"
       fill="none"
       stroke="#000000"
       stroke-width="24.8"
       stroke-opacity="1"
       stroke-linejoin="round"
       id="path40" /><path
       d="m 131.5,355.5 c 2.81,-0.58 9.99,-2.14 12,-3 1.63,-0.74 3.26,-2.04 3.85,-3.18 1.5,-3.09 3.9,-13.72 4.15,-14.82"
       fill="none"
       stroke="#000000"
       stroke-width="24.8"
       stroke-opacity="1"
       stroke-linejoin="round"
       id="path41" /><path
       d="m 288.5,355.5 c -2.86,-0.68 -9.32,-2.24 -12,-3 -2.12,-0.63 -3.09,-1.59 -4,-4 -1.17,-3.1 -3.83,-10.65 -5,-14"
       fill="none"
       stroke="#000000"
       stroke-width="24.8"
       stroke-opacity="1"
       stroke-linejoin="round"
       id="path42" /><path
       d="m 310.5,348.5 c 10.05,0.74 18.71,2.06 19,2 0.73,-0.16 2.4,-1.13 4.75,-1.24 6.39,-0.38 14.33,-0.39 15.25,0.24 1,0.73 1.55,1.68 1.65,2.84 0.07,1.08 -0.69,2.09 -0.65,3.16 0.01,0.46 0.34,1.12 1,2"
       fill="none"
       stroke="#000000"
       stroke-width="24.8"
       stroke-opacity="1"
       stroke-linejoin="round"
       id="path43" /><path
       d="m 330.5,365.5 c 0.09,-2.87 0.24,-11.44 0,-12 -0.2,-0.47 -0.87,-1.47 -2,-3"
       fill="none"
       stroke="#000000"
       stroke-width="24.8"
       stroke-opacity="1"
       stroke-linejoin="round"
       id="path44" /></g><g
     id="g46"
     style="display:inline"><ellipse
       style="display:inline;fill:#c97682;fill-opacity:1;stroke:#000000;stroke-width:0;stroke-linejoin:bevel;stroke-dasharray:none;stroke-dashoffset:0;stroke-opacity:1"
       id="path45"
       cx="882.87244"
       cy="409.53268"
       rx="391.54694"
       ry="382.70813" /><ellipse
       style="display:inline;fill:#eee391;fill-opacity:1;stroke:#000000;stroke-width:0;stroke-dasharray:none;stroke-opacity:1"
       id="path45-6"
       cx="422.69968"
       cy="656.06897"
       rx="391.54694"
       ry="382.70813" /><ellipse
       style="display:inline;fill:#75c275;fill-opacity:1;stroke:#000000;stroke-width:0;stroke-dasharray:none;stroke-opacity:1"
       id="path45-6-6"
       cx="1364.3668"
       cy="656.06897"
       rx="391.54694"
       ry="382.70813" /><ellipse
       style="display:inline;fill:#767ebd;fill-opacity:1;stroke:#000000;stroke-width:0;stroke-dasharray:none;stroke-opacity:1"
       id="path45-6-0"
       cx="422.69968"
       cy="-1117.8654"
       rx="391.54694"
       ry="382.70813"
       transform="scale(1,-1)" /><ellipse
       style="display:inline;fill:#ca94c2;fill-opacity:1;stroke:#000000;stroke-width:0;stroke-dasharray:none;stroke-opacity:1"
       id="path45-6-6-4"
       cx="1364.3668"
       cy="-1117.8654"
       rx="391.54694"
       ry="382.70813"
       transform="scale(1,-1)" /><ellipse
       style="display:inline;fill:#d9a07d;fill-opacity:1;stroke:#000000;stroke-width:0;stroke-dasharray:none;stroke-opacity:1"
       id="path45-1"
       cx="882.87244"
       cy="-1364.403"
       rx="391.54694"
       ry="382.70813"
       transform="scale(1,-1)" /><path
       id="path87"
       style="display:inline;fill:#a6a6a6;fill-opacity:0;stroke:#ffffff;stroke-width:50;stroke-dasharray:none;stroke-opacity:1"
       d="M 882.86949,981.69762 A 391.54694,382.70813 0 0 0 491.32489,1364.4043 391.54694,382.70813 0 0 0 882.86949,1747.1111 391.54694,382.70813 0 0 0 1274.4222,1364.4043 391.54694,382.70813 0 0 0 882.86949,981.69762 Z M 1364.3636,735.15627 c -173.0539,0.001 -319.7834,109.7846 -371.53317,261.94663 162.69757,46.4587 281.59117,193.2651 281.59177,367.3014 -10e-5,42.2128 -7.0972,82.7861 -20.0114,120.7601 34.8954,9.9648 71.7635,15.4051 109.9528,15.4053 216.2469,0 391.552,-171.3414 391.5528,-382.7067 -8e-4,-211.36533 -175.3059,-382.70986 -391.5528,-382.70673 z m -941.66665,0 c -216.24371,0.001 -391.543807,171.34451 -391.544605,382.70673 7.98e-4,211.3622 175.300895,382.7055 391.544605,382.7067 31.1255,5e-4 61.36059,-3.6521 90.389,-10.3597 -14.03595,-39.4146 -21.7609,-81.7165 -21.76106,-125.8057 6.8e-4,-180.9416 128.51515,-332.4523 301.16374,-372.34698 C 739.23743,842.51403 593.83849,735.15379 422.69695,735.15627 Z m 941.66665,-461.792 c -216.2437,0.001 -391.54376,171.3445 -391.54456,382.70671 3.3e-4,86.82842 29.62316,166.87035 79.47596,231.08725 71.461,-92.26122 184.5423,-152.00122 312.0686,-152.00196 127.5325,-0.002 240.4793,59.86282 311.9711,152.11589 49.9094,-64.23724 79.5814,-144.31815 79.5817,-231.20118 -8e-4,-211.36531 -175.3059,-382.70985 -391.5528,-382.70671 z m -941.66665,0 c -216.24371,0.001 -391.543807,171.3445 -391.544605,382.70671 3.28e-4,86.8859 29.66915,166.97093 79.581705,231.20932 71.48993,-92.25377 184.43132,-152.12329 311.9629,-152.12403 127.51762,-0.002 240.68499,59.64998 312.15008,151.89617 C 784.65143,822.85296 814.24937,742.8531 814.2497,656.07098 814.2489,444.70567 638.94384,273.36113 422.69695,273.36427 Z M 882.86949,26.822918 C 711.63063,26.823912 566.16144,134.31444 512.9883,283.99252 c 172.64478,39.89707 301.26072,191.13894 301.2614,372.07846 -1.7e-4,44.09141 -7.71217,86.39849 -21.76107,125.80567 29.02614,6.70719 59.25787,10.36766 90.38086,10.36784 38.20524,5.6e-4 75.09331,-5.44142 110.00163,-15.41341 C 979.94261,738.85862 972.8192,698.29186 972.81904,656.07098 972.8197,482.0389 1091.7752,335.3862 1254.4678,288.92416 1202.7662,136.67554 1055.9879,26.820406 882.86949,26.822918 Z" /></g><g
     stroke-linecap="round"
     id="Layer_6"
     transform="matrix(5.1332414,0,0,4.9758322,-520.81085,-362.32701)"
     style="display:inline"><path
       d="m 444.2949,482.46818 c -1.83793,-1.28228 -6.33254,-5.41684 -10.7849,-10.35818 -1.94,-2.19 -11.39,-13.3 -15.26,-17.74 -18.14,-21.25 -67.18886,-78.65541 -83.53886,-94.37541 l 29.27078,-34.96788 C 371.90078,327.68247 412.78,356.16 423.62,363.68 c 13.81,9.37 40.56,26.56 52.91,34.34 2.17,1.38 8.80376,7.51877 9.64376,8.13877 z"
       fill="none"
       stroke="#000000"
       stroke-width="10"
       stroke-opacity="1"
       stroke-linejoin="round"
       id="path1"
       style="display:inline;fill:#666666;stroke:#ffffff;stroke-width:8.24442;stroke-dasharray:none;stroke-opacity:1" /><path
       d="m 311.59,307.7 48.04,15.4 c 4.85,1.35 6.33208,2.62212 9.95604,4.47106 C 369.75,328.19 369.9,328.42 370.09,328.71 c 0.83,1.32 1.35,2.21 1.58,2.68 0.04,0.08 0.15,0.52 0.33,1.32 0.02,0.06 0.54,1.51 -0.18,2.72 -1.05,1.72 -4.73,5 -6.57,6.02 -2.15,1.15 -6.59,2.48 -8.49,2.56 -2.24,0.07 -5.62,-0.87 -6.03,-0.94 l 0.12,0.07 -0.06,-0.47 c 0.62,2.34 1.66,7.36 0.68,12.5 -0.64,3.18 -3,7.54 -4.72,9.01 -1.62,1.31 -4.86,1.98 -6.61,1.4 -1.3,-0.47 -5.5,-3 -5.75,-3.51 l -1.66,-3.05 c -3.43,-8.43 -8.16,-21.55 -10.44,-27.78 -2.47,-6.29 -9.48,-22.02 -9.69,-22.47"
       fill="none"
       stroke="#000000"
       stroke-width="10"
       stroke-opacity="1"
       stroke-linejoin="round"
       id="path2"
       style="display:inline;fill:#cccccc;stroke:#ffffff;stroke-width:6.59554;stroke-dasharray:none;stroke-opacity:1" /><path
       d="m 512.4,435.93 c -1.77386,15.93507 -3.42774,23.06055 -6.96604,41.49848 -10.74307,8.26007 -18.61769,13.26221 -29.57812,19.58956 -1.2232,0.0989 -18.88652,-8.76544 -33.86584,-17.33804 -0.01,-0.08 -0.07,-0.35 -0.04,-0.53 0,-6.51203 4.02413,-33.61199 5.1,-47.36 12.89963,-8.57371 25.99343,-16.82195 39.16,-24.95 l -0.1,0.02 c 11.84878,11.97022 25.10737,26.97352 26.29,29.07 z"
       fill="none"
       stroke="#000000"
       stroke-width="10"
       stroke-opacity="1"
       stroke-linejoin="round"
       id="path5"
       style="display:inline;fill:#cccccc;stroke:#ffffff;stroke-width:9.8933;stroke-dasharray:none;stroke-opacity:1" /><path
       d="m 349.71009,341.93008 c 0.22799,0.29405 6.68126,5.67234 44.81601,41.47072 9.68486,8.98279 30.87855,27.61237 42.47659,37.76188 2.03213,1.78328 5.94771,5.21704 7.82124,6.85804 0.45599,0.3889 0.90207,0.7873 1.35806,1.1762"
       fill="none"
       stroke="#000000"
       stroke-width="9.69684"
       stroke-opacity="1"
       stroke-linejoin="round"
       id="path9"
       style="display:inline;stroke:#ffffff;stroke-width:4.12221;stroke-dasharray:none;stroke-opacity:1" /><path
       d="m 323.41119,334.39638 -12.11095,-26.73885 31.09192,10.08729 c -23.31697,-6.10269 -18.30981,10.59156 -18.98097,16.65156 z"
       fill="none"
       stroke="#000000"
       stroke-width="6.91897"
       stroke-opacity="1"
       stroke-linejoin="round"
       id="path14"
       style="display:inline;fill:#000000;stroke-width:6.91872;stroke-dasharray:none" /></g><path
     id="path46"
     style="display:inline;fill:#000000;stroke:#000000;stroke-width:34.1875;stroke-opacity:0.00621116"
     d="m 1979.0495,1929.7397 c -15.099,34.8718 -38.7496,53.3545 -66.3045,53.3545 -27.5549,0 -41.4668,-62.831 -26.9158,-102.7622 17.7249,-48.6412 37.4366,-63.884 64.9915,-63.884 27.555,0 44.9492,74.6753 28.2288,113.2917 z" /><g
     id="g55"
     style="display:none"><ellipse
       style="fill:#c97682;fill-opacity:1;stroke:#000000;stroke-width:50;stroke-linejoin:bevel;stroke-dasharray:none;stroke-dashoffset:0;stroke-opacity:1"
       id="ellipse49"
       cx="882.87244"
       cy="409.53268"
       rx="391.54694"
       ry="382.70813" /><ellipse
       style="fill:#eee391;fill-opacity:1;stroke:#000000;stroke-width:50;stroke-dasharray:none;stroke-opacity:1"
       id="ellipse50"
       cx="422.69968"
       cy="656.06897"
       rx="391.54694"
       ry="382.70813" /><ellipse
       style="fill:#75c275;fill-opacity:1;stroke:#000000;stroke-width:50;stroke-dasharray:none;stroke-opacity:1"
       id="ellipse51"
       cx="1364.3668"
       cy="656.06897"
       rx="391.54694"
       ry="382.70813" /><ellipse
       style="fill:#767ebd;fill-opacity:1;stroke:#000000;stroke-width:50;stroke-dasharray:none;stroke-opacity:1"
       id="ellipse52"
       cx="422.69968"
       cy="-1117.8654"
       rx="391.54694"
       ry="382.70813"
       transform="scale(1,-1)" /><ellipse
       style="fill:#ca94c2;fill-opacity:1;stroke:#000000;stroke-width:50;stroke-dasharray:none;stroke-opacity:1"
       id="ellipse53"
       cx="1364.3668"
       cy="-1117.8654"
       rx="391.54694"
       ry="382.70813"
       transform="scale(1,-1)" /><ellipse
       style="fill:#d9a07d;fill-opacity:1;stroke:#000000;stroke-width:50;stroke-dasharray:none;stroke-opacity:1"
       id="ellipse54"
       cx="882.87244"
       cy="-1364.403"
       rx="391.54694"
       ry="382.70813"
       transform="scale(1,-1)" /><ellipse
       style="display:none;fill:#eee391;fill-opacity:1;stroke:#000000;stroke-width:50;stroke-dasharray:none;stroke-opacity:1"
       id="ellipse55"
       cx="422.69968"
       cy="656.06897"
       rx="391.54694"
       ry="382.70813" /></g></svg>
